<?xml version="1.0" encoding="UTF-8" standalone="no"?>
<!-- Created with Inkscape (http://www.inkscape.org/) -->

<svg
   width="109.40668mm"
   height="18.626801mm"
   viewBox="0 0 109.40668 18.626801"
   version="1.1"
   id="svg5"
   inkscape:version="1.1.1 (3bf5ae0d25, 2021-09-20)"
   sodipodi:docname="suh-logo-en.svg"
   xmlns:inkscape="http://www.inkscape.org/namespaces/inkscape"
   xmlns:sodipodi="http://sodipodi.sourceforge.net/DTD/sodipodi-0.dtd"
   xmlns="http://www.w3.org/2000/svg"
   xmlns:svg="http://www.w3.org/2000/svg">
  <sodipodi:namedview
     id="namedview7"
     pagecolor="#ffffff"
     bordercolor="#666666"
     borderopacity="1.0"
     inkscape:pageshadow="2"
     inkscape:pageopacity="0.0"
     inkscape:pagecheckerboard="true"
     inkscape:document-units="mm"
     showgrid="false"
     fit-margin-top="0"
     fit-margin-left="0"
     fit-margin-right="0"
     fit-margin-bottom="0"
     inkscape:zoom="2.9611953"
     inkscape:cx="175.94247"
     inkscape:cy="13.508059"
     inkscape:window-width="1920"
     inkscape:window-height="1003"
     inkscape:window-x="0"
     inkscape:window-y="0"
     inkscape:window-maximized="1"
     inkscape:current-layer="layer1" />
  <defs
     id="defs2" />
  <g
     inkscape:label="Layer 1"
     inkscape:groupmode="layer"
     id="layer1"
     transform="translate(-73.315266,-121.86274)">
    <path
       style="fill:#ffffff;stroke-width:0.999998;fill-opacity:1"
       d="m 175.63894,140.22764 -0.29824,-0.26186 -0.0967,-0.32264 -0.0967,-0.32265 0.0575,-0.30631 0.0575,-0.30631 0.25756,-0.29335 0.25756,-0.29334 0.32776,-0.0882 c 0.54479,-0.1467 1.16291,0.083 1.4382,0.5345 l 0.16527,0.27106 v 0.41334 0.41334 l -0.1775,0.28721 c -0.0976,0.15797 -0.28625,0.34344 -0.41914,0.41216 l -0.24162,0.12495 h -0.46692 -0.46693 l -0.29823,-0.26185 z m 3.72133,-1.06447 c -0.39222,-0.20724 -0.56077,-0.38001 -0.72976,-0.74802 -0.19956,-0.43458 -0.19767,-0.92315 0.005,-1.37023 l 0.16083,-0.35423 0.32414,-0.21356 c 0.17828,-0.11746 0.48664,-0.23924 0.68524,-0.27062 l 0.36109,-0.0571 0.36415,0.13907 c 0.44969,0.17174 0.84974,0.58237 0.98739,1.0135 l 0.10414,0.32618 -0.0555,0.35115 c -0.0305,0.19313 -0.15157,0.49701 -0.26903,0.67529 l -0.21356,0.32415 -0.35423,0.16083 -0.35424,0.16083 -0.381,-0.002 c -0.20955,-8.4e-4 -0.4953,-0.0619 -0.635,-0.13573 z m -6.75578,-0.11434 c -0.11933,-0.0939 -0.26077,-0.30341 -0.31432,-0.46567 l -0.0974,-0.29501 0.0974,-0.29501 c 0.0536,-0.16225 0.19499,-0.3718 0.31432,-0.46566 l 0.21695,-0.17066 h 0.37515 c 0.46281,0 0.66359,0.10214 0.8288,0.42164 0.37651,0.72806 -0.0552,1.44103 -0.87249,1.44103 h -0.33146 z m -80.81295,-1.59384 -0.108058,-0.0686 0.02339,-1.3483 0.02339,-1.34829 h 0.419258 0.419256 l 0.68141,1.13921 0.68141,1.1392 0.04233,-1.18154 0.04233,-1.18154 h 0.169334 0.169333 v 1.397 1.397 h -0.381 -0.381 l -0.677333,-1.12036 -0.677334,-1.12037 -0.02381,1.07255 -0.02381,1.07254 -0.09239,0.11132 c -0.106565,0.12841 -0.157204,0.13504 -0.306712,0.0402 z m 14.46204,-0.0926 -0.0876,-0.16377 v -1.14164 c 0,-0.62791 0.0231,-1.20191 0.0514,-1.27557 l 0.0514,-0.13392 h 0.39433 0.39433 l 0.69676,1.16416 0.69676,1.16417 0.002,-1.10067 c 10e-4,-0.60536 0.0344,-1.15204 0.0742,-1.21483 0.0398,-0.0628 0.14398,-0.10037 0.23153,-0.0835 l 0.15919,0.0307 v 1.39584 1.39584 l -0.39506,0.0255 -0.39506,0.0255 -0.72657,-1.21084 -0.72657,-1.21085 -1.7e-4,1.19744 -1.7e-4,1.19744 -0.13393,0.0514 c -0.18645,0.0716 -0.18841,0.0708 -0.28643,-0.11237 z m 15.89536,-0.19201 c -0.16004,-0.20014 -0.37623,-0.48772 -0.48042,-0.63906 l -0.18945,-0.27517 h -0.37523 -0.37524 v -0.20837 -0.20837 l 0.74084,-0.0245 0.74083,-0.0245 v -0.33867 -0.33867 l -0.86542,-0.0241 -0.86543,-0.0241 -0.0236,1.1671 -0.0236,1.1671 h -0.21167 -0.21166 l -0.0233,-1.37583 -0.0233,-1.37583 h 1.25516 1.25517 l 0.1016,0.1016 0.1016,0.1016 v 0.60113 0.60113 l -0.1016,0.1016 c -0.0559,0.0559 -0.19047,0.1016 -0.29908,0.1016 h -0.19747 l 0.35733,0.47329 0.35734,0.47329 -0.0855,0.13551 c -0.15,0.2378 -0.26015,0.20467 -0.55804,-0.16786 z m -48.799441,0.15353 c -0.02578,-0.0672 -0.0345,-0.2293 -0.01938,-0.36029 l 0.02748,-0.23817 0.968517,-0.80615 0.968516,-0.80615 -0.989683,-0.0239 -0.989683,-0.0239 v -0.21125 -0.21124 l 1.248833,0.0234 1.248834,0.0234 v 0.3378 0.33781 l -0.999367,0.80519 -0.999366,0.8052 1.068418,0.0237 1.068418,0.0237 -0.02672,0.18792 -0.02672,0.18793 -1.250618,0.0234 -1.250618,0.0234 z m 3.945099,-0.68449 v -0.8066 h 1.233555 1.233555 l -0.02705,0.1905 -0.02706,0.1905 -0.999569,0.0239 -0.999568,0.0239 0.0259,0.3571 0.0259,0.35711 1.042708,0.0238 1.042708,0.0238 -0.02671,0.18785 -0.02671,0.18785 -1.248833,0.0234 -1.248833,0.0234 z m 3.471333,0.63348 c 0,-0.0927 0.275616,-0.72137 0.61248,-1.397 l 0.61248,-1.22841 h 0.341374 0.341373 l 0.61248,1.22841 c 0.336864,0.67563 0.61248,1.30428 0.61248,1.397 v 0.16859 H 83.69979 83.500982 l -0.152717,-0.33867 -0.152718,-0.33867 h -0.611774 -0.611774 l -0.105401,-0.127 -0.105401,-0.127 0.105401,-0.127 0.105401,-0.127 h 0.455299 c 0.250415,0 0.453452,-0.0286 0.451192,-0.0635 -0.0023,-0.0349 -0.12817,-0.30467 -0.279802,-0.59943 l -0.275694,-0.53594 -0.571208,1.19211 -0.571207,1.1921 h -0.207324 -0.207324 z m 4.167775,-1.24696 0.02322,-1.42079 h 0.211667 0.211667 l 0.02349,1.2065 0.02349,1.2065 h 0.807898 0.807897 l -0.02705,0.1905 -0.02706,0.1905 -1.039226,0.0238 -1.039226,0.0238 z m 2.605559,1.2517 c 0,-0.0901 0.273239,-0.71877 0.607197,-1.397 l 0.607197,-1.23315 h 0.346657 0.346656 l 0.61248,1.22841 c 0.336863,0.67563 0.61248,1.30428 0.61248,1.397 v 0.16859 h -0.198809 -0.198807 l -0.152718,-0.33867 -0.152717,-0.33867 h -0.611774 -0.611775 l -0.1054,-0.127 -0.105401,-0.127 0.105401,-0.127 0.1054,-0.127 h 0.4553 c 0.250415,0 0.453451,-0.0286 0.451192,-0.0635 -0.0023,-0.0349 -0.126905,-0.30216 -0.27699,-0.59386 l -0.272881,-0.53036 -0.588429,1.18653 -0.588428,1.18653 H 87.73218 87.539265 Z m 8.466667,-1.23315 v -1.397 h 1.106233 1.106232 l 0.170936,0.0915 c 0.09401,0.0503 0.224859,0.22054 0.290767,0.37828 l 0.119832,0.2868 v 0.62508 c 0,0.3438 -0.04223,0.74623 -0.09385,0.8943 l -0.09385,0.2692 -0.240617,0.12443 -0.240616,0.12443 h -1.062538 -1.062538 z m 2.097828,0.84186 0.188172,-0.1318 v -0.68703 -0.68703 l -0.140122,-0.15484 -0.140123,-0.15483 h -0.791211 -0.791211 v 0.91722 c 0,0.50447 0.0254,0.94262 0.05644,0.97367 0.03104,0.031 0.365467,0.0564 0.743161,0.0564 h 0.686717 z m 3.96189,0.42209 -0.13305,-0.13305 v -1.26661 -1.26661 l 0.12808,-0.0492 c 0.0704,-0.027 0.18366,-0.003 0.2516,0.0534 l 0.12353,0.10252 0.0236,1.11345 0.0236,1.11346 h 0.84666 0.84667 l 0.0236,-1.16775 0.0236,-1.16775 0.12566,-0.0482 c 0.0691,-0.0265 0.18233,-10e-4 0.25159,0.0563 l 0.12592,0.10451 v 1.20418 1.20417 l -0.15483,0.14012 -0.15483,0.14013 h -1.10912 -1.10912 z m 8.45794,0.0296 c -0.0243,-0.0634 -0.0337,-0.70428 -0.0208,-1.42411 l 0.0235,-1.30878 h 0.21167 0.21166 v 1.397 1.397 l -0.19087,0.0271 -0.19088,0.0271 z m 2.60355,-0.002 c -0.14392,-0.17535 -1.1192,-2.39881 -1.1192,-2.55157 0,-0.0781 0.0601,-0.16497 0.13356,-0.19316 l 0.13357,-0.0513 0.11163,0.11742 c 0.0614,0.0646 0.3315,0.62056 0.60024,1.23553 l 0.48862,1.11813 0.52949,-1.2028 0.52949,-1.20279 0.17641,-0.0271 0.17641,-0.0271 0.0521,0.13587 0.0521,0.13588 -0.53344,1.20356 c -0.29339,0.66197 -0.56934,1.2512 -0.61322,1.3094 -0.0439,0.0582 -0.2038,0.10584 -0.35538,0.10584 -0.15158,0 -0.31468,-0.0476 -0.36246,-0.10584 z m 2.86013,-0.69623 v -0.8066 h 1.23356 1.23355 l -0.027,0.1905 -0.0271,0.1905 -0.99957,0.0239 -0.99957,0.0239 0.0259,0.3571 0.0259,0.35711 1.04271,0.0238 1.0427,0.0238 -0.0267,0.18785 -0.0267,0.18785 -1.24884,0.0234 -1.24883,0.0234 z m 8.1153,0.7174 c -0.007,-0.0466 -0.0165,-0.13229 -0.0212,-0.1905 l -0.008,-0.10583 1.05833,-0.0423 1.05833,-0.0423 0.026,-0.35983 0.026,-0.35984 -0.95736,-0.001 c -0.52656,-6.8e-4 -1.01255,-0.0362 -1.07999,-0.0789 l -0.12262,-0.0776 -0.0347,-0.54463 -0.0347,-0.54463 0.098,-0.18307 0.098,-0.18307 1.24466,0.0234 1.24465,0.0234 v 0.16933 0.16934 l -1.0795,0.0237 -1.0795,0.0237 v 0.33614 0.33613 h 0.9125 0.91249 l 0.18818,0.1318 0.18817,0.13181 v 0.58181 0.58182 l -0.13305,0.13305 -0.13305,0.13305 h -1.17928 -1.17929 z m 4.09582,-1.3335 0.0232,-1.41817 h 0.16934 0.16933 l 0.0232,1.41817 0.0232,1.41817 h -0.21576 -0.21576 z m 2.52088,0.24233 v -1.18709 l -0.5715,-0.025 -0.5715,-0.025 v -0.16934 -0.16933 l 1.37583,-0.0233 1.37584,-0.0233 v 0.21377 0.21376 h -0.54795 -0.54794 l -0.0236,1.16417 -0.0236,1.16416 -0.23284,0.0268 -0.23283,0.0268 z m 3.18911,1.11939 c -0.031,-0.031 -0.0564,-0.30394 -0.0564,-0.60643 v -0.55 l -0.49282,-0.60006 c -0.27106,-0.33003 -0.51883,-0.64425 -0.55061,-0.69826 -0.0885,-0.15035 0.0275,-0.36747 0.19628,-0.36747 h 0.15074 l 0.48492,0.60017 0.48492,0.60018 0.26534,-0.32501 c 0.14594,-0.17875 0.38336,-0.45516 0.5276,-0.61423 l 0.26225,-0.28922 0.14002,0.0537 c 0.25105,0.0963 0.14935,0.34992 -0.41031,1.02307 l -0.55033,0.66193 v 0.58402 0.58403 h -0.19756 c -0.10865,0 -0.22295,-0.0254 -0.254,-0.0565 z m 4.38588,-0.047 c -0.0243,-0.0634 -0.0337,-0.70428 -0.0208,-1.42411 l 0.0235,-1.30878 h 0.21167 0.21166 l 0.025,0.5715 0.025,0.5715 h 0.83893 0.83893 l 0.025,-0.5715 0.025,-0.5715 h 0.16934 0.16933 l 0.0232,1.41817 0.0232,1.41817 h -0.21372 -0.21371 v -0.59267 -0.59267 h -0.8428 -0.8428 l -0.025,0.5715 -0.025,0.5715 -0.19088,0.0271 -0.19087,0.0271 z m 4.25718,0.012 -0.14817,-0.0863 v -1.20653 -1.20652 l 0.1016,-0.1016 0.1016,-0.1016 h 1.1938 1.1938 l 0.1016,0.1016 0.1016,0.1016 v 1.16235 1.16235 l -0.13305,0.13305 -0.13304,0.13305 -1.11579,-0.003 -1.11578,-0.003 -0.14817,-0.0863 z m 2.11947,-1.32961 0.024,-0.9554 -0.91296,0.0241 -0.91297,0.0241 -0.0243,0.83418 -0.0243,0.83417 0.10063,0.12124 0.10062,0.12124 0.81271,-0.0241 0.81272,-0.0241 z m 1.93747,1.36461 c -0.031,-0.031 -0.0564,-0.12515 -0.0564,-0.20913 v -0.1527 l 1.0795,-0.0237 1.0795,-0.0237 0.026,-0.35983 0.026,-0.35984 h -1.00394 -1.00393 l -0.1016,-0.1016 -0.1016,-0.1016 v -0.60113 -0.60113 l 0.1016,-0.1016 0.1016,-0.1016 h 1.21073 1.21074 v 0.21166 0.21167 h -1.05834 -1.05833 v 0.33138 0.33138 l 0.98065,0.0284 0.98066,0.0285 0.12001,0.16435 0.12001,0.16434 v 0.47298 0.47298 l -0.1318,0.18817 -0.1318,0.18818 h -1.16642 c -0.64153,0 -1.19182,-0.0254 -1.22287,-0.0565 z m 4.064,0 c -0.031,-0.031 -0.0564,-0.65969 -0.0564,-1.397 v -1.34055 h 1.17929 1.17928 l 0.13305,0.13304 0.13305,0.13305 v 0.53824 0.53824 l -0.13305,0.13305 -0.13305,0.13304 h -0.79828 -0.79829 v -0.21166 -0.21167 h 0.67733 0.67734 v -0.381 -0.381 h -0.80434 -0.80433 v 1.18533 1.18534 h -0.19756 c -0.10865,0 -0.22295,-0.0254 -0.254,-0.0565 z m 3.85735,-1.36172 0.0232,-1.41817 h 0.16933 0.16934 l 0.0232,1.41817 0.0232,1.41817 h -0.21576 -0.21576 z m 2.52088,0.24233 v -1.18709 l -0.5715,-0.025 -0.5715,-0.025 v -0.16934 -0.16933 l 1.37583,-0.0233 1.37583,-0.0233 v 0.21377 0.21376 h -0.54794 -0.54794 l -0.0236,1.16417 -0.0236,1.16416 -0.23283,0.0268 -0.23283,0.0268 z m 1.94733,1.00145 c 0,-0.0959 0.26503,-0.72683 0.58897,-1.40204 l 0.58897,-1.22767 0.36353,0.0262 0.36353,0.0262 0.60712,1.22767 c 0.33392,0.67521 0.61014,1.29434 0.61383,1.37583 l 0.007,0.14817 h -0.20995 -0.20994 l -0.17278,-0.33867 -0.17277,-0.33867 h -0.54169 c -0.6499,0 -0.80954,-0.0515 -0.80954,-0.26144 v -0.15866 l 0.1905,-0.0428 c 0.10478,-0.0235 0.34568,-0.0528 0.53533,-0.0651 l 0.34484,-0.0223 -0.26952,-0.59267 -0.26951,-0.59266 -0.57493,1.2065 -0.57492,1.2065 h -0.1989 -0.19889 v -0.17439 z m 4.16778,-1.24116 0.0232,-1.42079 h 0.16933 0.16934 l 0.0423,1.18534 0.0423,1.18533 0.83098,0.0243 0.83098,0.0243 -0.0266,0.18737 -0.0266,0.18736 -1.03922,0.0238 -1.03923,0.0238 z m 8.13174,0.67868 c -0.25884,-0.05 -0.53085,-0.41914 -0.53085,-0.7204 v -0.24909 l 0.24749,-0.24749 0.24749,-0.24749 h 0.24167 c 0.3031,0 0.60393,0.20592 0.71056,0.48641 l 0.0819,0.21532 -0.0965,0.29233 -0.0965,0.29233 -0.28434,0.11881 c -0.15639,0.0653 -0.29509,0.11362 -0.30823,0.10727 -0.0131,-0.006 -0.10885,-0.0279 -0.2127,-0.048 z m 9.05137,-1.47615 c -0.15479,-0.0446 -0.44368,-0.24332 -0.64198,-0.44162 l -0.36055,-0.36054 -0.0988,-0.39257 c -0.12107,-0.48081 -0.12223,-0.61099 -0.009,-1.0184 0.1112,-0.40041 0.51518,-0.86748 0.93603,-1.08217 l 0.32214,-0.16435 h 0.4511 0.4511 l 0.37286,0.1905 c 0.20508,0.10478 0.48878,0.33617 0.63044,0.51421 l 0.25758,0.32372 0.0311,0.61535 0.0311,0.61535 -0.17713,0.3472 c -0.38719,0.75895 -1.2966,1.11236 -2.1958,0.85332 z M 77.294598,134.85915 v -0.21166 h 1.27 1.27 v 0.21166 0.21167 h -1.27 -1.27 z m 38.692672,0 v -0.21166 h 1.27 1.27 v 0.21166 0.21167 h -1.27 -1.27 z m 59.70426,-1.87142 c -0.24328,-0.12123 -0.53576,-0.34292 -0.64996,-0.49264 -0.81154,-1.06398 -0.50162,-2.55666 0.64996,-3.13052 l 0.44233,-0.22042 0.51253,0.002 0.51255,0.002 0.33867,0.15536 c 0.41635,0.19099 0.76525,0.53478 0.99743,0.98281 l 0.17608,0.33978 v 0.55033 0.55034 l -0.17608,0.33977 c -0.23218,0.44804 -0.58108,0.79182 -0.99743,0.98282 l -0.33867,0.15535 -0.51255,0.002 -0.51253,0.002 -0.44233,-0.22042 z m -4.07765,-2.53461 c -0.3921,-0.17601 -0.65759,-0.4328 -0.86428,-0.83596 l -0.16987,-0.33132 0.0325,-0.5752 0.0325,-0.57519 0.25144,-0.35594 c 0.43341,-0.61355 1.21245,-0.87524 1.98798,-0.6678 l 0.38012,0.10167 0.34488,0.35859 0.34488,0.3586 0.10972,0.39189 0.10972,0.39189 -0.0567,0.37803 c -0.0671,0.44738 -0.30856,0.82799 -0.75145,1.18442 l -0.32226,0.25936 -0.56674,0.0249 -0.56672,0.0249 z m -83.167617,-0.51486 c -0.03318,-0.0332 -0.06033,-0.96838 -0.06033,-2.07822 v -2.01789 h 1.698899 1.698899 l 0.184934,0.0974 c 0.2876,0.15138 0.309256,0.2287 0.310638,1.10915 l 0.0013,0.8255 -0.169333,0.16934 -0.169333,0.16933 h -0.254 c -0.1397,0 -0.254,0.0203 -0.254,0.045 0,0.0248 0.212715,0.32763 0.4727,0.67305 l 0.4727,0.62804 -0.0282,0.14337 c -0.03744,0.19036 -0.267856,0.3284 -0.438718,0.26283 -0.07546,-0.029 -0.414014,-0.4328 -0.752342,-0.89743 l -0.61514,-0.84479 -0.550334,-0.0262 -0.550333,-0.0262 v -0.254 -0.254 l 1.016,-0.0229 1.016,-0.0229 0.105833,-0.14146 c 0.05821,-0.0778 0.105834,-0.28385 0.105834,-0.45789 v -0.31643 l -0.135322,-0.13533 -0.135321,-0.13532 -1.198179,0.0234 -1.198178,0.0234 -0.04233,1.73567 -0.04233,1.73567 -0.214835,0.025 c -0.11816,0.0138 -0.241985,-0.002 -0.275167,-0.0353 z m 19.896677,0 c -0.0332,-0.0332 -0.0603,-0.94466 -0.0603,-2.02552 v -1.96519 l 0.12294,-0.10202 0.12294,-0.10203 0.17489,0.0555 0.17488,0.0555 -0.0227,2.04699 -0.0226,2.04699 -0.21484,0.025 c -0.11816,0.0138 -0.24198,-0.002 -0.27516,-0.0353 z m 9.82133,0 c -0.0332,-0.0332 -0.0603,-0.92266 -0.0603,-1.97662 v -1.91629 l 0.1016,-0.1016 0.1016,-0.1016 0.42756,10e-4 c 0.23517,7.1e-4 0.46873,0.0293 0.51903,0.0635 0.0503,0.0342 0.5456,0.82198 1.10066,1.75059 l 1.00921,1.68838 0.023,-1.68192 0.023,-1.68193 0.0932,-0.11229 c 0.13605,-0.16393 0.39183,-0.13721 0.49282,0.0515 l 0.0876,0.16377 v 1.81553 1.81554 l -0.11986,0.0995 -0.11985,0.0995 -0.49398,-0.0256 -0.49398,-0.0256 -0.87036,-1.43933 c -0.47871,-0.79164 -0.95496,-1.57269 -1.05834,-1.73567 l -0.18796,-0.29633 -0.0423,1.778 -0.0423,1.778 -0.21483,0.025 c -0.11816,0.0138 -0.24199,-0.002 -0.27517,-0.0353 z m 19.77185,-0.0458 c -0.0577,-0.0577 -0.10485,-0.14895 -0.10485,-0.20287 0,-0.0539 0.39816,-0.9214 0.88479,-1.92773 l 0.88479,-1.8297 0.20416,-0.0512 c 0.11229,-0.0282 0.33326,-0.0389 0.49105,-0.0238 l 0.28688,0.0274 0.90829,1.778 0.90828,1.778 -0.0193,0.254 -0.0193,0.254 -0.23094,0.0266 -0.23094,0.0266 -0.27407,-0.55577 -0.27406,-0.55578 h -0.91018 -0.91019 l -0.0935,-0.17474 -0.0935,-0.17475 0.0984,-0.11851 0.0984,-0.11852 0.73869,-0.0242 0.7387,-0.0242 -0.43973,-0.93133 -0.43973,-0.93133 -0.87828,1.778 -0.87828,1.778 -0.17033,0.0244 c -0.0937,0.0134 -0.2175,-0.0228 -0.27516,-0.0804 z m 10.49866,0 c -0.0577,-0.0577 -0.10484,-0.15307 -0.10484,-0.21203 0,-0.15798 1.77431,-3.69869 1.89051,-3.77261 0.0545,-0.0347 0.25518,-0.0637 0.44587,-0.0644 l 0.34671,-10e-4 0.13094,0.14817 c 0.072,0.0815 0.49866,0.90995 0.94809,1.84103 l 0.81713,1.69285 -0.0248,0.21215 -0.0248,0.21214 -0.23094,0.0266 -0.23095,0.0266 -0.27277,-0.55316 -0.27278,-0.55316 -0.93561,-0.0238 -0.93562,-0.0238 v -0.254 -0.254 l 0.78317,-0.0243 c 0.43074,-0.0134 0.78121,-0.0515 0.77882,-0.0847 -0.002,-0.0332 -0.20416,-0.45364 -0.44839,-0.93437 l -0.44405,-0.87405 -0.88511,1.76305 -0.88511,1.76305 -0.17032,0.0244 c -0.0937,0.0134 -0.2175,-0.0228 -0.27517,-0.0804 z m 6.29655,-0.0356 c -0.0283,-0.0737 -0.0514,-0.96139 -0.0514,-1.97274 v -1.83881 l 0.1016,-0.1016 0.1016,-0.1016 h 0.44269 0.44268 l 0.1221,0.12211 c 0.0672,0.0671 0.55566,0.85499 1.08555,1.75074 l 0.96345,1.62865 0.0423,-1.72049 0.0423,-1.72049 0.14817,-0.0933 0.14817,-0.0933 0.14816,0.0934 0.14817,0.0934 0.0228,1.88518 0.0228,1.88518 -0.0998,0.12018 -0.0997,0.12019 -0.51574,-0.0249 -0.51573,-0.0249 -1.0363,-1.73567 -1.03629,-1.73566 -8.7e-4,1.69756 -8.8e-4,1.69757 -0.1016,0.1016 c -0.14515,0.14516 -0.46377,0.12551 -0.52434,-0.0323 z m -59.741398,-1.09381 v -1.14637 l 1.756833,0.0229 1.756834,0.0229 0.02857,0.20209 0.02857,0.20209 -0.113241,0.0718 c -0.06228,0.0395 -0.713316,0.0724 -1.446741,0.0731 l -1.3335,0.001 v 0.54838 0.54838 l 1.502834,0.0231 1.502833,0.0231 v 0.254 0.254 l -1.8415,0.0228 -1.8415,0.0228 z m 6.707508,1.01126 -0.18817,-0.1318 v -1.71468 -1.71469 l 0.12002,-0.16434 0.12003,-0.16435 1.67389,-0.0264 c 0.92063,-0.0145 1.76197,-0.004 1.86964,0.0228 l 0.19575,0.0491 v 0.25238 0.25239 h -1.52956 -1.52957 l -0.16377,0.0877 -0.16376,0.0876 v 1.25009 1.25009 l 0.1016,0.1016 0.1016,0.1016 h 1.25145 1.25145 l 0.0495,-0.19729 c 0.0272,-0.10851 0.0375,-0.36569 0.0228,-0.5715 l -0.0267,-0.37421 -0.48683,-0.0254 -0.48683,-0.0254 v -0.24071 -0.24072 l 0.13392,-0.0514 c 0.0737,-0.0283 0.43561,-0.0514 0.80433,-0.0514 h 0.67041 v 1.05353 1.05353 l -0.18817,0.1318 -0.18817,0.1318 h -1.61332 -1.61333 z m 9.97798,-0.0913 -0.17548,-0.22309 v -1.60109 -1.6011 l 0.20782,-0.20782 0.20781,-0.20782 h 1.6011 1.6011 l 0.22308,0.17548 0.22309,0.17548 v 1.68719 1.68719 l -0.16934,0.16933 -0.16933,0.16933 h -1.68719 -1.68719 z m 3.19224,-1.76021 0.0234,-1.3483 -0.10805,-0.0686 c -0.125,-0.0793 -2.27187,-0.0965 -2.4718,-0.0198 l -0.13393,0.0514 v 1.3315 c 0,0.73232 0.0263,1.35785 0.0586,1.39006 0.0322,0.0322 0.63229,0.0481 1.3335,0.0353 l 1.27494,-0.0233 z m 11.59169,1.92849 c -0.0319,-0.0319 -0.0581,-0.25511 -0.0581,-0.49591 v -0.43783 l 1.41817,-1.16716 c 0.77999,-0.64194 1.43056,-1.19965 1.44571,-1.23937 l 0.0275,-0.0722 -1.46688,-0.0232 -1.46688,-0.0232 -0.0286,-0.20209 -0.0286,-0.2021 0.11324,-0.0718 c 0.0623,-0.0395 0.83905,-0.0724 1.72614,-0.0731 l 1.6129,-10e-4 0.1016,0.1016 0.1016,0.1016 v 0.43408 0.43407 l -1.47952,1.17883 -1.47952,1.17882 1.54302,0.0423 1.54302,0.0423 v 0.254 0.254 l -1.78342,0.0228 c -0.98088,0.0125 -1.80955,-0.003 -1.8415,-0.0353 z m 5.86859,-1.0882 v -1.143 h 1.78066 1.78065 l 0.0531,0.13851 c 0.0292,0.0762 0.0144,0.20001 -0.0329,0.27517 l -0.0861,0.13666 -1.40904,0.0232 -1.40905,0.0232 v 0.54634 0.54633 l 1.4937,0.0231 1.49371,0.0231 0.0889,0.14107 0.0889,0.14107 -0.11129,0.1341 -0.11129,0.13409 h -1.80996 -1.80997 z m 12.02267,-0.88134 v -2.02825 l 0.1574,-0.0499 c 0.0866,-0.0275 0.21992,-0.026 0.29633,0.003 l 0.13893,0.0533 v 1.72428 1.72429 l 1.2065,0.0235 1.2065,0.0235 v 0.254 0.254 l -1.50283,0.0231 -1.50283,0.0231 z m 16.84866,-0.008 v -2.032 l 1.41817,4.8e-4 c 1.60365,5.3e-4 1.91662,0.0595 2.26964,0.42763 l 0.24919,0.25985 0.0242,1.24352 0.0242,1.24353 -0.15123,0.29633 -0.15124,0.29633 -0.29633,0.14804 -0.29633,0.14803 -1.54517,1.4e-4 -1.54517,1.2e-4 z m 3.14035,1.19712 0.16165,-0.19988 v -0.95736 c 0,-0.52655 -0.0237,-1.01904 -0.0526,-1.09442 -0.0289,-0.0754 -0.16039,-0.19279 -0.29213,-0.26092 l -0.23954,-0.12387 h -1.06253 -1.06254 v 1.44573 1.44574 l 1.19301,-0.0276 1.19301,-0.0276 z m -69.349688,-2.89045 v -0.33867 h 1.761067 1.761067 l 0.1016,0.1016 c 0.152557,0.15256 0.122402,0.38931 -0.06217,0.48809 l -0.163767,0.0876 h -1.6989 -1.698899 z m 37.370988,0.21782 c -0.0255,-0.0665 -0.0338,-0.20933 -0.0185,-0.3175 l 0.0279,-0.19665 1.74909,-0.0229 1.74909,-0.0229 0.13475,0.13474 c 0.16882,0.16882 0.16913,0.24549 0.002,0.41293 l -0.13305,0.13305 h -1.73227 -1.73228 z m 40.42003,-0.29712 c -0.39274,-0.1259 -0.72269,-0.41519 -0.90641,-0.79469 l -0.1766,-0.36481 0.002,-0.3331 c 0.002,-0.37819 0.23366,-0.94007 0.47612,-1.15537 0.84744,-0.75251 2.22418,-0.39496 2.57526,0.66881 l 0.0995,0.30162 -0.0533,0.38878 c -0.0293,0.21382 -0.14474,0.52696 -0.2565,0.69585 l -0.20322,0.30708 -0.32166,0.15263 c -0.37764,0.17921 -0.91188,0.23682 -1.23511,0.1332 z m 6.61515,-1.35352 -0.24749,-0.24749 v -0.42333 -0.42333 l 0.26051,-0.26052 0.26051,-0.26051 h 0.42333 0.42334 l 0.24749,0.24749 0.24748,0.24748 v 0.43636 0.43636 l -0.24748,0.24749 -0.24749,0.24749 h -0.43636 -0.43635 z m -2.9788,-0.46633 c -0.58803,-0.20958 -0.82489,-0.55669 -0.82438,-1.20815 v -0.40637 l 0.16527,-0.27105 c 0.21654,-0.35515 0.57724,-0.53335 1.07872,-0.53296 l 0.40638,3.1e-4 0.27057,0.16498 c 0.14881,0.0907 0.33794,0.26781 0.42031,0.39351 l 0.14974,0.22854 v 0.45068 0.45068 l -0.17155,0.22976 c -0.24181,0.32389 -0.53625,0.51353 -0.88074,0.56728 l -0.29633,0.0462 -0.31831,-0.11344 z"
       id="path2352" />
  </g>
</svg>
