<?xml version="1.0" encoding="UTF-8" standalone="no"?>
<svg
   width="118.93896"
   height="43.999878"
   viewBox="0 0 31.468849 11.641968"
   version="1.1"
   id="svg91"
   xmlns="http://www.w3.org/2000/svg"
   xmlns:svg="http://www.w3.org/2000/svg">
  <defs
     id="defs95" />
  <g
     transform="matrix(1.044029,0,0,1.044029,322.08646,-200.52978)"
     fill="#231f20"
     id="g89">
    <path
       d="m -300.936,202.1 a 1.21,1.21 0 0 0 -0.216,-0.104 1.49,1.49 0 0 1 -0.195,-0.088 0.48,0.48 0 0 1 -0.139,-0.111 c -0.032,-0.038 -0.05,-0.093 -0.05,-0.164 0,-0.04 0.007,-0.08 0.02,-0.115 a 0.23,0.23 0 0 1 0.058,-0.087 0.24,0.24 0 0 1 0.1,-0.057 0.31,0.31 0 0 1 0.216,-0.001 0.29,0.29 0 0 1 0.076,0.053 c 0.02,0.02 0.037,0.043 0.05,0.067 a 0.67,0.67 0 0 1 0.033,0.077 l 0.015,0.043 h 0.132 l 0.01,-0.052 0.03,-0.127 a 0.55,0.55 0 0 1 0.036,-0.089 l 0.024,-0.046 -0.04,-0.033 c -0.06,-0.05 -0.126,-0.086 -0.196,-0.1 a 0.83,0.83 0 0 0 -0.5,0.007 0.65,0.65 0 0 0 -0.206,0.12 c -0.056,0.05 -0.103,0.115 -0.134,0.188 a 0.61,0.61 0 0 0 -0.046,0.238 c 0,0.122 0.025,0.22 0.074,0.296 a 0.61,0.61 0 0 0 0.177,0.18 c 0.07,0.048 0.14,0.08 0.216,0.1 0.07,0.027 0.137,0.056 0.197,0.088 0.06,0.032 0.102,0.066 0.14,0.1 0.032,0.038 0.048,0.092 0.048,0.16 a 0.4,0.4 0 0 1 -0.023,0.135 c -0.015,0.04 -0.037,0.076 -0.064,0.106 -0.027,0.03 -0.06,0.053 -0.1,0.07 -0.08,0.035 -0.188,0.034 -0.27,0.004 -0.04,-0.015 -0.075,-0.035 -0.105,-0.058 a 0.41,0.41 0 0 1 -0.077,-0.08 0.51,0.51 0 0 1 -0.051,-0.089 l -0.017,-0.04 h -0.134 l -0.006,0.06 -0.016,0.126 a 0.63,0.63 0 0 1 -0.031,0.104 l -0.016,0.043 0.036,0.03 c 0.052,0.043 0.113,0.08 0.2,0.114 0.087,0.034 0.176,0.05 0.297,0.05 0.1,0 0.213,-0.017 0.302,-0.05 a 0.64,0.64 0 0 0 0.23,-0.145 c 0.062,-0.062 0.1,-0.137 0.144,-0.22 0.044,-0.083 0.05,-0.173 0.05,-0.265 0,-0.115 -0.025,-0.2 -0.075,-0.28 -0.05,-0.08 -0.107,-0.125 -0.177,-0.168 m 3.036,-0.943 -0.05,-0.01 -0.022,0.048 -0.115,0.244 -0.13,0.25 -0.134,0.243 -0.07,0.122 -0.212,-0.388 -0.246,-0.473 -0.02,-0.042 -0.118,0.016 a 0.65,0.65 0 0 1 -0.133,0 l -0.2,-0.03 0.07,0.117 0.078,0.13 0.57,0.98 -0.003,0.412 -0.018,0.344 -0.01,0.08 0.08,-0.007 c 0.08,-0.007 0.174,-0.007 0.253,0 l 0.077,0.007 -0.007,-0.077 -0.01,-0.15 -0.007,-0.207 -0.004,-0.228 -10e-4,-0.204 0.094,-0.177 0.137,-0.24 0.18,-0.296 0.232,-0.366 0.083,-0.13 -0.15,0.03 c -0.098,0.02 -0.085,0.02 -0.184,0 m 3.158,1.41 c -0.046,0.106 -0.104,0.2 -0.174,0.25 -0.07,0.05 -0.15,0.1 -0.24,0.122 -0.16,0.04 -0.325,0.038 -0.477,0.028 l -0.097,-0.01 -0.013,-0.535 v -0.478 l 0.004,-0.294 0.01,-0.224 0.133,-0.013 a 1.75,1.75 0 0 1 0.514,0.025 c 0.084,0.02 0.154,0.057 0.214,0.1 a 0.55,0.55 0 0 1 0.142,0.22 1.1,1.1 0 0 1 0.054,0.375 c 0,0.173 -0.023,0.316 -0.07,0.423 m 0.238,-1.14 v 0 a 0.78,0.78 0 0 0 -0.302,-0.2 c -0.17,-0.064 -0.405,-0.076 -0.638,-0.06 a 3.56,3.56 0 0 1 -0.4,0.003 l -0.274,-0.013 0.018,0.43 0.006,0.357 v 0.478 l -0.006,0.358 -0.015,0.35 -0.004,0.072 0.072,-0.005 0.177,-0.006 h 0.18 l 0.18,0.003 c 0.168,0.005 0.345,0.005 0.534,-0.048 a 0.96,0.96 0 0 0 0.342,-0.177 c 0.103,-0.084 0.2,-0.194 0.255,-0.33 0.055,-0.136 0.1,-0.302 0.1,-0.497 0,-0.148 -0.018,-0.284 -0.053,-0.403 a 0.79,0.79 0 0 0 -0.172,-0.314 m 3.433,-0.24 a 0.31,0.31 0 0 1 -0.076,-0.012 l -0.086,-0.022 0.005,0.1 0.017,0.52 0.004,0.567 v 0.216 l -0.178,-0.192 -0.35,-0.386 -0.373,-0.414 -0.37,-0.415 h -0.14 l 0.004,0.068 0.007,0.283 10e-4,0.458 v 0.206 l -0.007,0.238 -0.01,0.243 -0.012,0.227 -0.012,0.177 -0.01,0.097 -0.016,0.087 0.088,-0.01 a 0.75,0.75 0 0 1 0.178,0 l 0.084,0.01 -0.01,-0.084 c -0.002,-0.014 -0.003,-0.04 -0.005,-0.08 l -0.01,-0.325 -0.004,-0.2 -0.002,-0.18 v -0.144 l 0.003,-0.354 0.001,-0.048 0.594,0.653 0.68,0.778 h 0.133 v -0.156 -0.158 l -0.005,-0.4 -10e-4,-0.196 v -0.167 l 0.005,-0.2 0.012,-0.272 0.013,-0.26 0.012,-0.18 0.008,-0.1 -0.1,0.023 a 0.3,0.3 0 0 1 -0.07,0.012 m 2.954,1.8 0.028,-0.102 -0.104,0.022 c -0.04,0.008 -0.1,0.015 -0.144,0.02 l -0.184,0.01 -0.198,0.005 h -0.127 l -0.002,-0.092 -10e-4,-0.26 v -0.275 l 10e-4,-0.062 0.067,0.001 0.176,0.003 0.183,0.007 0.16,0.013 0.087,0.01 -0.017,-0.087 c -0.004,-0.024 -0.007,-0.048 -0.007,-0.07 a 0.42,0.42 0 0 1 0.007,-0.074 l 0.016,-0.084 -0.085,0.008 -0.124,0.01 -0.144,0.008 -0.17,0.007 -0.147,0.002 -10e-4,-0.092 -0.001,-0.2 0.004,-0.18 0.005,-0.108 0.162,0.004 0.173,0.01 0.15,0.01 0.16,0.01 0.084,0.005 -0.016,-0.083 a 0.37,0.37 0 0 1 -0.007,-0.071 c 0,-0.024 0.002,-0.047 0.007,-0.07 l 0.016,-0.08 -0.322,0.013 h -0.477 l -0.3,-0.013 0.004,0.07 0.015,0.355 0.007,0.36 v 0.478 l -0.007,0.357 -0.015,0.354 -0.004,0.07 0.07,-0.003 0.243,-0.006 h 0.5 l 0.24,0.006 0.1,0.004 -0.025,-0.086 c -0.002,-0.01 -0.006,-0.026 -0.006,-0.055 l 10e-4,-0.04 z m 2.995,-1.83 c -0.098,0.02 -0.085,0.02 -0.185,0 l -0.05,-0.01 -0.022,0.048 -0.115,0.244 -0.13,0.25 -0.134,0.243 -0.07,0.122 -0.212,-0.388 -0.246,-0.473 -0.02,-0.042 -0.118,0.016 a 0.65,0.65 0 0 1 -0.134,0 l -0.208,-0.03 0.07,0.117 0.078,0.13 0.57,0.98 -0.003,0.412 -0.02,0.344 -0.008,0.08 0.08,-0.007 a 1.44,1.44 0 0 1 0.253,0 l 0.077,0.007 -0.007,-0.077 -0.01,-0.15 -0.007,-0.207 -0.004,-0.23 -10e-4,-0.204 0.095,-0.177 0.137,-0.24 0.18,-0.296 0.232,-0.366 0.083,-0.13 z m -16.813,-4.584 c -0.01,2.26 -1.136,3.396 -3.2,3.396 -2.04,0 -3.232,-0.917 -3.232,-3.02 v -2.14 c 0,-1.2 -0.132,-2.16 -0.176,-2.667 0.242,0.033 0.64,0.055 0.87,0.055 0.23,0 0.474,-0.022 0.695,-0.055 -0.1,1.048 -0.143,2.447 -0.143,3.9 0,2.094 0.385,3.284 2.326,3.284 2.097,0 2.152,-2.083 2.152,-3.802 l -0.078,-3.383 a 2.65,2.65 0 0 0 0.508,0.055 c 0.153,0 0.297,-0.022 0.44,-0.055 -0.078,0.837 -0.154,2.678 -0.165,4.43 m 7.188,-0.69 v 4.022 a 1.04,1.04 0 0 0 -0.264,-0.034 c -0.077,0 -0.186,0.01 -0.252,0.034 l -5.2,-5.728 -0.033,2.4 0.088,3.25 a 2.12,2.12 0 0 0 -0.45,-0.057 2.14,2.14 0 0 0 -0.462,0.057 c 0.077,-0.42 0.232,-3.25 0.232,-5.1 l -0.044,-2.564 c 0.076,0.01 0.208,0.022 0.285,0.022 0.086,0 0.208,-0.01 0.295,-0.022 l 5.2,5.6 -0.088,-5.525 a 2,2 0 0 0 0.44,0.054 1.87,1.87 0 0 0 0.418,-0.054 l -0.155,3.653"
       id="path85"
       style="fill:#ffffff;fill-opacity:1" />
    <path
       d="m -291.937,200 c -0.96,0 -1.952,-0.463 -2.426,-0.806 0.187,-0.153 0.264,-0.198 0.474,-0.474 0.154,-0.2 0.254,-0.552 0.254,-0.552 0.198,0.585 0.793,1.16 1.864,1.16 1.071,0 1.82,-0.806 1.82,-1.556 0,-1.856 -4.06,-1.006 -4.06,-3.556 0,-1.38 1.213,-2.143 2.824,-2.143 0.86,0 1.58,0.272 2.086,0.607 -0.232,0.188 -0.265,0.2 -0.4,0.4 -0.1,0.165 -0.242,0.52 -0.242,0.52 -0.2,-0.52 -0.663,-0.995 -1.523,-0.995 -0.872,0 -1.5,0.54 -1.5,1.215 0,1.844 4.216,1.105 4.205,3.502 -0.01,1.888 -1.36,2.672 -3.377,2.672 m 11.118,-0.167 c -0.154,-0.02 -0.3,-0.055 -0.453,-0.055 -0.153,0 -0.3,0.034 -0.463,0.055 l -1.808,-5.863 h -0.023 l -1.93,5.863 c -0.155,-0.02 -0.298,-0.055 -0.463,-0.055 -0.144,0 -0.3,0.034 -0.453,0.055 l -1.335,-4.805 c -0.176,-0.595 -0.826,-2.4 -1.003,-2.8 a 7.31,7.31 0 0 0 0.84,0.055 c 0.234,0 0.463,-0.022 0.694,-0.055 l 1.6,6.05 h 0.022 l 1.92,-6.05 a 1.93,1.93 0 0 0 0.441,0.055 c 0.144,0 0.288,-0.022 0.43,-0.055 0.253,1.1 1.478,4.75 1.852,6.05 h 0.022 l 1.73,-6.05 a 1.74,1.74 0 0 0 0.409,0.055 c 0.143,0 0.276,-0.022 0.43,-0.055 l -2.47,7.604"
       id="path87"
       style="fill:#ffffff;fill-opacity:1" />
  </g>
</svg>
